<svg width="22" height="24" viewBox="0 0 22 24" fill="none" xmlns="http://www.w3.org/2000/svg">
<path d="M20.8639 16.2542L19.5736 14.1006C19.1116 13.3306 18.8689 12.4497 18.8689 11.5525V8.48774C18.8689 4.15241 15.3386 0.62442 10.9997 0.62442C6.66089 0.62442 3.13054 4.15124 3.13054 8.48774V11.5525C3.13054 12.4497 2.88671 13.3306 2.42587 14.1006L1.13555 16.2542C0.686388 17.0021 0.675886 17.9027 1.10522 18.661C1.53572 19.4217 2.31387 19.8756 3.18771 19.8756H7.83105C7.82172 19.9736 7.79255 20.0681 7.79255 20.1672C7.79255 21.9371 9.23105 23.3756 11.0009 23.3756C12.7707 23.3756 14.2092 21.9371 14.2092 20.1672C14.2092 20.0681 14.18 19.9736 14.1707 19.8756H18.8141C19.6879 19.8756 20.4672 19.4217 20.8965 18.6622C21.3247 17.9027 21.313 17.0021 20.8639 16.2542ZM12.4569 20.1672C12.4569 20.9711 11.8024 21.6256 10.9985 21.6256C10.1947 21.6256 9.54021 20.9711 9.54021 20.1672C9.54021 20.0681 9.55889 19.9712 9.57872 19.8756H12.4184C12.4382 19.9712 12.4569 20.0681 12.4569 20.1672ZM19.3717 17.7989C19.3157 17.8969 19.1512 18.1244 18.8117 18.1244H3.18537C2.84704 18.1244 2.68138 17.8969 2.62538 17.7989C2.57055 17.7009 2.45972 17.443 2.63355 17.1537L3.92389 15.0001C4.54922 13.9583 4.87821 12.7659 4.87821 11.5525V8.48774C4.87821 5.11724 7.62337 2.37442 10.9974 2.37442C14.3714 2.37442 17.1166 5.11724 17.1166 8.48774V11.5525C17.1166 12.7659 17.4467 13.9583 18.0709 15.0001L19.3612 17.1537C19.5362 17.443 19.4265 17.7009 19.3717 17.7989Z" fill="#41416E"/>
</svg>
