<svg width="30" height="36" viewBox="0 0 30 36" fill="none" xmlns="http://www.w3.org/2000/svg">
<path d="M16.2503 34.1033C16.2503 34.8545 15.6903 35.4641 15.0003 35.4641H8.33366C3.96866 35.4641 0.416992 31.5975 0.416992 26.8455V8.70112C0.416992 3.94909 3.96866 0.0825195 8.33366 0.0825195H15.0003C15.6903 0.0825195 16.2503 0.692172 16.2503 1.44335C16.2503 2.19453 15.6903 2.80418 15.0003 2.80418H8.33366C5.34699 2.80418 2.91699 5.44964 2.91699 8.70112V26.8455C2.91699 30.097 5.34699 32.7425 8.33366 32.7425H15.0003C15.6903 32.7425 16.2503 33.3521 16.2503 34.1033ZM29.217 16.8116L22.5503 9.55385C22.062 9.02222 21.2703 9.02222 20.782 9.55385C20.2937 10.0855 20.2937 10.9474 20.782 11.479L25.3153 16.4143H11.667C10.977 16.4143 10.417 17.0239 10.417 17.7751C10.417 18.5263 10.977 19.1359 11.667 19.1359H25.3153L20.782 24.0712C20.2937 24.6028 20.2937 25.4647 20.782 25.9963C21.0253 26.2612 21.3453 26.3955 21.6653 26.3955C21.9853 26.3955 22.3053 26.2631 22.5486 25.9963L29.2153 18.7386C29.7053 18.2033 29.7053 17.3432 29.217 16.8116Z" fill="white"/>
</svg>
