<svg width="24" height="24" viewBox="0 0 24 24" fill="none" xmlns="http://www.w3.org/2000/svg">
<path d="M23.1185 21.8805L17.6421 16.4042C19.0351 14.7347 19.8751 12.5892 19.8751 10.25C19.8751 4.94283 15.5573 0.625 10.2501 0.625C4.94296 0.625 0.625122 4.94283 0.625122 10.25C0.625122 15.5572 4.94296 19.875 10.2501 19.875C12.5893 19.875 14.7348 19.0351 16.4043 17.6421L21.8806 23.1184C22.0509 23.2887 22.2749 23.375 22.4989 23.375C22.7229 23.375 22.9469 23.2899 23.1173 23.1184C23.4603 22.7765 23.4603 22.2223 23.1185 21.8805ZM2.37512 10.25C2.37512 5.90767 5.90779 2.375 10.2501 2.375C14.5925 2.375 18.1251 5.90767 18.1251 10.25C18.1251 14.5923 14.5925 18.125 10.2501 18.125C5.90779 18.125 2.37512 14.5923 2.37512 10.25Z" fill="#41416E"/>
</svg>
